<svg width="64" height="64" viewBox="0 0 48 48" fill="none" xmlns="http://www.w3.org/2000/svg">
  <rect width="48" height="48" rx="10" fill="#FBF7EE"/>
  <circle cx="24" cy="24" r="20.5" stroke="#B8860B" stroke-width="1.4"/>
  <path d="M10 34V19.5" stroke="#B8860B" stroke-width="1.6" stroke-linecap="round"/>
  <path d="M38 34V19.5" stroke="#B8860B" stroke-width="1.6" stroke-linecap="round"/>
  <circle cx="10" cy="16.5" r="2" fill="#B8860B"/>
  <circle cx="38" cy="16.5" r="2" fill="#B8860B"/>
  <path d="M16 34V25c0-4.4 3.6-8 8-8s8 3.6 8 8v9" stroke="#B8860B" stroke-width="1.6" stroke-linecap="round" stroke-linejoin="round"/>
  <path d="M24 17V11.5" stroke="#B8860B" stroke-width="1.6" stroke-linecap="round"/>
  <path d="M25.6 11.2a2.3 2.3 0 1 1-2.2-3.7 3 3 0 1 0 2.2 3.7Z" fill="#B8860B"/>
  <path d="M7 34h34" stroke="#B8860B" stroke-width="1.6" stroke-linecap="round"/>
  <path d="M21.5 34v-4.5a2.5 2.5 0 0 1 5 0V34" stroke="#B8860B" stroke-width="1.4" stroke-linecap="round"/>
</svg>
